<svg xmlns="http://www.w3.org/2000/svg" width="1200" height="630" viewBox="0 0 1200 630">
	<defs>
		<linearGradient id="background" x1="0" y1="0" x2="1" y2="1">
			<stop offset="0" stop-color="#eff6ff" />
			<stop offset="0.55" stop-color="#ffffff" />
			<stop offset="1" stop-color="#e0f2fe" />
		</linearGradient>
		<linearGradient id="brand" x1="0" y1="0" x2="1" y2="1">
			<stop offset="0" stop-color="#3b82f6" />
			<stop offset="1" stop-color="#0284c7" />
		</linearGradient>
	</defs>
	<rect width="1200" height="630" fill="url(#background)" />
	<circle cx="1080" cy="80" r="230" fill="#bfdbfe" opacity="0.45" />
	<circle cx="100" cy="590" r="260" fill="#bae6fd" opacity="0.35" />
	<rect x="72" y="66" width="64" height="64" rx="16" fill="url(#brand)" />
	<g fill="#fff">
		<path d="M87 81h16v16H87zm5 5v6h6v-6zm17-5h16v16h-16zm5 5v6h6v-6zM87 103h16v16H87zm5 5v6h6v-6z" />
		<path d="M109 103h5v5h-5zm11 0h5v11h-5zm-11 11h11v5h-11z" />
	</g>
	<text x="156" y="111" fill="#0f172a" font-family="Arial, Helvetica, sans-serif" font-size="34" font-weight="700">QRGenerator</text>
	<text x="72" y="250" fill="#0f172a" font-family="Arial, Helvetica, sans-serif" font-size="66" font-weight="800">Free QR Code Generator</text>
	<text x="72" y="322" fill="#334155" font-family="Arial, Helvetica, sans-serif" font-size="34">Customize colors, sizes, and patterns.</text>
	<text x="72" y="370" fill="#334155" font-family="Arial, Helvetica, sans-serif" font-size="34">Download PNG or SVG instantly.</text>
	<g transform="translate(900 174)">
		<rect width="250" height="250" rx="28" fill="#fff" stroke="#dbeafe" stroke-width="8" />
		<g fill="#0f172a" transform="translate(38 38)">
			<path d="M0 0h65v65H0zm16 16v33h33V16zM109 0h65v65h-65zm16 16v33h33V16zM0 109h65v65H0zm16 16v33h33v-33z" />
			<path d="M82 0h16v32H82zm0 49h16v16H82zm0 33h33v16H82zm49 0h43v16h-43zm-49 33h16v59H82zm33 0h16v16h-16zm33 0h26v16h-26zm-33 33h33v26h-33zm49 0h10v26h-10z" />
		</g>
	</g>
	<rect x="72" y="448" width="370" height="72" rx="36" fill="url(#brand)" />
	<text x="257" y="495" text-anchor="middle" fill="#fff" font-family="Arial, Helvetica, sans-serif" font-size="28" font-weight="700">Free · Private · No sign-up</text>
</svg>
