<svg xmlns="http://www.w3.org/2000/svg" viewBox="0 0 24 24" fill="currentColor">
  <!-- QR Code-style grid pattern -->
    <rect x="2" y="2" width="2" height="2" fill="white"/>
  <rect x="6" y="2" width="2" height="2" fill="white"/>
  <rect x="10" y="2" width="2" height="2" fill="white"/>
  <rect x="16" y="2" width="2" height="2" fill="white"/>
  <rect x="20" y="2" width="2" height="2" fill="white"/>

  <rect x="2" y="6" width="2" height="2" fill="white"/>
  <rect x="8" y="6" width="2" height="2" fill="white"/>
  <rect x="12" y="6" width="2" height="2" fill="white"/>
  <rect x="20" y="6" width="2" height="2" fill="white"/>

  <rect x="4" y="10" width="2" height="2" fill="white"/>
  <rect x="8" y="10" width="2" height="2" fill="white"/>
  <rect x="14" y="10" width="2" height="2" fill="white"/>
  <rect x="18" y="10" width="2" height="2" fill="white"/>

  <rect x="2" y="14" width="2" height="2" fill="white"/>
  <rect x="6" y="14" width="2" height="2" fill="white"/>
  <rect x="12" y="14" width="2" height="2" fill="white"/>
  <rect x="16" y="14" width="2" height="2" fill="white"/>

  <rect x="4" y="18" width="2" height="2" fill="white"/>
  <rect x="10" y="18" width="2" height="2" fill="white"/>
  <rect x="14" y="18" width="2" height="2" fill="white"/>
  <rect x="20" y="18" width="2" height="2" fill="white"/>

  <!-- Corner position markers -->
  <rect x="2" y="2" width="6" height="6" fill="none" stroke="white" stroke-width="1"/>
  <rect x="16" y="2" width="6" height="6" fill="none" stroke="white" stroke-width="1"/>
  <rect x="2" y="16" width="6" height="6" fill="none" stroke="white" stroke-width="1"/>

  <!-- Inner squares for position markers -->
  <rect x="4" y="4" width="2" height="2" fill="white"/>
  <rect x="18" y="4" width="2" height="2" fill="white"/>
  <rect x="4" y="18" width="2" height="2" fill="white"/>
</svg>
